<svg xmlns="http://www.w3.org/2000/svg" version="1.1" xmlns:xlink="http://www.w3.org/1999/xlink" xmlns:svgjs="http://svgjs.com/svgjs" width="512" height="512" x="0" y="0" viewBox="0 0 32 32" style="enable-background:new 0 0 512 512" xml:space="preserve" class=""><g><path d="m27.117 7.663-5.78-5.78A3.1 3.1 0 0 0 19.21 1H11a3 3 0 0 0-3 3v1H7a3 3 0 0 0-3 3v20a3 3 0 0 0 3 3h14a3 3 0 0 0 3-3v-1h1a3 3 0 0 0 3-3V9.79a3.026 3.026 0 0 0-.883-2.127zM24.626 8H22a1 1 0 0 1-1-1V4.374zM22 28a1 1 0 0 1-1 1H7a1 1 0 0 1-1-1V8a1 1 0 0 1 1-1h1v17a3 3 0 0 0 3 3h11zm3-3H11a1 1 0 0 1-1-1V4a1 1 0 0 1 1-1h8v4a3 3 0 0 0 3 3h4v14a1 1 0 0 1-1 1z" fill="#a4ffad" data-original="#000000" class=""></path></g></svg>